<?xml version="1.0" standalone="no"?>
<!DOCTYPE svg PUBLIC "-//W3C//DTD SVG 20010904//EN"
 "http://www.w3.org/TR/2001/REC-SVG-20010904/DTD/svg10.dtd">
<svg version="1.0" xmlns="http://www.w3.org/2000/svg"
 width="376.000000pt" height="376.000000pt" viewBox="0 0 376.000000 376.000000"
 preserveAspectRatio="xMidYMid meet">
<metadata>
Created by potrace 1.14, written by Peter Selinger 2001-2017
</metadata>
<g transform="translate(0.000000,376.000000) scale(0.100000,-0.100000)"
fill="#000000" stroke="none">
<path d="M1655 3730 c-27 -4 -75 -11 -105 -15 -30 -4 -58 -9 -62 -12 -5 -2
-17 -6 -27 -8 -110 -21 -329 -102 -452 -168 -429 -229 -754 -613 -903 -1069
-36 -111 -69 -254 -83 -358 -12 -97 -9 -415 5 -495 7 -38 15 -83 18 -100 14
-85 90 -328 124 -394 5 -12 14 -29 18 -39 12 -24 85 -159 97 -180 125 -211
336 -430 555 -577 171 -115 385 -210 590 -263 73 -19 93 -23 195 -39 63 -10
443 -10 510 -1 109 16 284 56 337 77 13 5 61 24 108 42 630 243 1084 838 1168
1529 9 72 8 386 -2 442 -2 16 -7 47 -11 70 -50 310 -197 639 -393 878 -71 86
-240 250 -317 308 -38 28 -75 56 -82 62 -6 5 -63 39 -127 75 -159 91 -291 144
-516 205 -127 34 -500 52 -645 30z"/>
</g>
</svg>
